<?xml version="1.0" encoding="UTF-8" standalone="no" ?>
<!DOCTYPE svg PUBLIC "-//W3C//DTD SVG 1.1//EN" "http://www.w3.org/Graphics/SVG/1.1/DTD/svg11.dtd">
<svg xmlns="http://www.w3.org/2000/svg" xmlns:xlink="http://www.w3.org/1999/xlink" version="1.1"
     width="230.00000000000003" height="230.00000000000003" viewBox="0 0 50 50" xml:space="preserve">
<g transform="matrix(1 0 0 1 7.1485 8.2174)">
<g style="">
		<g transform="matrix(0.0227 0 0 0.0162 -2.8958 -2.3697)">
<circle style="stroke: none; stroke-width: 0; stroke-dasharray: none; stroke-linecap: butt; stroke-dashoffset: 0; stroke-linejoin: miter; stroke-miterlimit: 4; fill: rgb(21,24,96); fill-rule: nonzero; opacity: 1;"
        cx="0" cy="0" r="75"/>
</g>
    <g transform="matrix(0.0227 0 0 0.0162 -0.3241 -2.7693)">
<circle style="stroke: none; stroke-width: 0; stroke-dasharray: none; stroke-linecap: butt; stroke-dashoffset: 0; stroke-linejoin: miter; stroke-miterlimit: 4; fill: rgb(21,24,96); fill-rule: nonzero; opacity: 1;"
        cx="0" cy="0" r="75"/>
</g>
    <g transform="matrix(0.0227 0 0 0.0162 2.3015 -2.4389)">
<circle style="stroke: none; stroke-width: 0; stroke-dasharray: none; stroke-linecap: butt; stroke-dashoffset: 0; stroke-linejoin: miter; stroke-miterlimit: 4; fill: rgb(21,24,96); fill-rule: nonzero; opacity: 1;"
        cx="0" cy="0" r="75"/>
</g>
    <g transform="matrix(0.0227 0 0 0.0162 -4.9725 -0.9943)">
<circle style="stroke: none; stroke-width: 0; stroke-dasharray: none; stroke-linecap: butt; stroke-dashoffset: 0; stroke-linejoin: miter; stroke-miterlimit: 4; fill: rgb(21,24,96); fill-rule: nonzero; opacity: 1;"
        cx="0" cy="0" r="75"/>
</g>
    <g transform="matrix(0.0227 0 0 0.0162 -5.446 0.7576)">
<circle style="stroke: none; stroke-width: 0; stroke-dasharray: none; stroke-linecap: butt; stroke-dashoffset: 0; stroke-linejoin: miter; stroke-miterlimit: 4; fill: rgb(21,24,96); fill-rule: nonzero; opacity: 1;"
        cx="0" cy="0" r="75"/>
</g>
    <g transform="matrix(0.0227 0 0 0.0162 -4.8865 2.7554)">
<circle style="stroke: none; stroke-width: 0; stroke-dasharray: none; stroke-linecap: butt; stroke-dashoffset: 0; stroke-linejoin: miter; stroke-miterlimit: 4; fill: rgb(21,24,96); fill-rule: nonzero; opacity: 1;"
        cx="0" cy="0" r="75"/>
</g>
    <g transform="matrix(0.0227 0 0 0.0162 -3.7244 4.6918)">
<circle style="stroke: none; stroke-width: 0; stroke-dasharray: none; stroke-linecap: butt; stroke-dashoffset: 0; stroke-linejoin: miter; stroke-miterlimit: 4; fill: rgb(21,24,96); fill-rule: nonzero; opacity: 1;"
        cx="0" cy="0" r="75"/>
</g>
    <g transform="matrix(0.0227 0 0 0.0162 -1.7875 6.1978)">
<circle style="stroke: none; stroke-width: 0; stroke-dasharray: none; stroke-linecap: butt; stroke-dashoffset: 0; stroke-linejoin: miter; stroke-miterlimit: 4; fill: rgb(21,24,96); fill-rule: nonzero; opacity: 1;"
        cx="0" cy="0" r="75"/>
</g>
    <g transform="matrix(0.0227 0 0 0.0162 0.752 6.7818)">
<circle style="stroke: none; stroke-width: 0; stroke-dasharray: none; stroke-linecap: butt; stroke-dashoffset: 0; stroke-linejoin: miter; stroke-miterlimit: 4; fill: rgb(21,24,96); fill-rule: nonzero; opacity: 1;"
        cx="0" cy="0" r="75"/>
</g>
    <g transform="matrix(0.0227 0 0 0.0162 2.861 5.8904)">
<circle style="stroke: none; stroke-width: 0; stroke-dasharray: none; stroke-linecap: butt; stroke-dashoffset: 0; stroke-linejoin: miter; stroke-miterlimit: 4; fill: rgb(21,24,96); fill-rule: nonzero; opacity: 1;"
        cx="0" cy="0" r="75"/>
</g>
    <g transform="matrix(0.0227 0 0 0.0162 4.6257 -1.2709)">
<circle style="stroke: none; stroke-width: 0; stroke-dasharray: none; stroke-linecap: butt; stroke-dashoffset: 0; stroke-linejoin: miter; stroke-miterlimit: 4; fill: rgb(21,24,96); fill-rule: nonzero; opacity: 1;"
        cx="0" cy="0" r="75"/>
</g>
    <g transform="matrix(0.0227 0 0 0.0162 5.4435 0.6654)">
<circle style="stroke: none; stroke-width: 0; stroke-dasharray: none; stroke-linecap: butt; stroke-dashoffset: 0; stroke-linejoin: miter; stroke-miterlimit: 4; fill: rgb(21,24,96); fill-rule: nonzero; opacity: 1;"
        cx="0" cy="0" r="75"/>
</g>
    <g transform="matrix(0.0227 0 0 0.0162 5.1422 2.6632)">
<circle style="stroke: none; stroke-width: 0; stroke-dasharray: none; stroke-linecap: butt; stroke-dashoffset: 0; stroke-linejoin: miter; stroke-miterlimit: 4; fill: rgb(21,24,96); fill-rule: nonzero; opacity: 1;"
        cx="0" cy="0" r="75"/>
</g>
    <g transform="matrix(0.0227 0 0 0.0162 4.4105 4.3537)">
<circle style="stroke: none; stroke-width: 0; stroke-dasharray: none; stroke-linecap: butt; stroke-dashoffset: 0; stroke-linejoin: miter; stroke-miterlimit: 4; fill: rgb(21,24,96); fill-rule: nonzero; opacity: 1;"
        cx="0" cy="0" r="75"/>
</g>
    <g transform="matrix(0.0227 0 0 0.0162 -1.5723 -0.9636)">
<circle style="stroke: none; stroke-width: 0; stroke-dasharray: none; stroke-linecap: butt; stroke-dashoffset: 0; stroke-linejoin: miter; stroke-miterlimit: 4; fill: rgb(34,21,96); fill-rule: nonzero; opacity: 1;"
        cx="0" cy="0" r="75"/>
</g>
    <g transform="matrix(0.0227 0 0 0.0162 0.9672 -1.0558)">
<circle style="stroke: none; stroke-width: 0; stroke-dasharray: none; stroke-linecap: butt; stroke-dashoffset: 0; stroke-linejoin: miter; stroke-miterlimit: 4; fill: rgb(34,21,96); fill-rule: nonzero; opacity: 1;"
        cx="0" cy="0" r="75"/>
</g>
    <g transform="matrix(0.0227 0 0 0.0162 2.9901 -0.3489)">
<circle style="stroke: none; stroke-width: 0; stroke-dasharray: none; stroke-linecap: butt; stroke-dashoffset: 0; stroke-linejoin: miter; stroke-miterlimit: 4; fill: rgb(34,21,96); fill-rule: nonzero; opacity: 1;"
        cx="0" cy="0" r="75"/>
</g>
    <g transform="matrix(0.0227 0 0 0.0162 -3.4231 -0.3796)">
<circle style="stroke: none; stroke-width: 0; stroke-dasharray: none; stroke-linecap: butt; stroke-dashoffset: 0; stroke-linejoin: miter; stroke-miterlimit: 4; fill: rgb(34,21,96); fill-rule: nonzero; opacity: 1;"
        cx="0" cy="0" r="75"/>
</g>
    <g transform="matrix(0.0227 0 0 0.0162 -2.9496 1.6182)">
<circle style="stroke: none; stroke-width: 0; stroke-dasharray: none; stroke-linecap: butt; stroke-dashoffset: 0; stroke-linejoin: miter; stroke-miterlimit: 4; fill: rgb(34,21,96); fill-rule: nonzero; opacity: 1;"
        cx="0" cy="0" r="75"/>
</g>
    <g transform="matrix(0.0227 0 0 0.0162 -2.1318 3.4931)">
<circle style="stroke: none; stroke-width: 0; stroke-dasharray: none; stroke-linecap: butt; stroke-dashoffset: 0; stroke-linejoin: miter; stroke-miterlimit: 4; fill: rgb(34,21,96); fill-rule: nonzero; opacity: 1;"
        cx="0" cy="0" r="75"/>
</g>
    <g transform="matrix(0.0227 0 0 0.0162 -0.9697 4.8147)">
<circle style="stroke: none; stroke-width: 0; stroke-dasharray: none; stroke-linecap: butt; stroke-dashoffset: 0; stroke-linejoin: miter; stroke-miterlimit: 4; fill: rgb(34,21,96); fill-rule: nonzero; opacity: 1;"
        cx="0" cy="0" r="75"/>
</g>
    <g transform="matrix(0.0227 0 0 0.0162 1.5697 4.9683)">
<circle style="stroke: none; stroke-width: 0; stroke-dasharray: none; stroke-linecap: butt; stroke-dashoffset: 0; stroke-linejoin: miter; stroke-miterlimit: 4; fill: rgb(34,21,96); fill-rule: nonzero; opacity: 1;"
        cx="0" cy="0" r="75"/>
</g>
    <g transform="matrix(0.0227 0 0 0.0162 3.0762 3.155)">
<circle style="stroke: none; stroke-width: 0; stroke-dasharray: none; stroke-linecap: butt; stroke-dashoffset: 0; stroke-linejoin: miter; stroke-miterlimit: 4; fill: rgb(34,21,96); fill-rule: nonzero; opacity: 1;"
        cx="0" cy="0" r="75"/>
</g>
    <g transform="matrix(0.0227 0 0 0.0162 3.7218 1.0957)">
<circle style="stroke: none; stroke-width: 0; stroke-dasharray: none; stroke-linecap: butt; stroke-dashoffset: 0; stroke-linejoin: miter; stroke-miterlimit: 4; fill: rgb(34,21,96); fill-rule: nonzero; opacity: 1;"
        cx="0" cy="0" r="75"/>
</g>
    <g transform="matrix(0.0227 0 0 0.0162 -0.7114 0.7576)">
<circle style="stroke: none; stroke-width: 0; stroke-dasharray: none; stroke-linecap: butt; stroke-dashoffset: 0; stroke-linejoin: miter; stroke-miterlimit: 4; fill: rgb(36,24,99); fill-rule: nonzero; opacity: 1;"
        cx="0" cy="0" r="75"/>
</g>
    <g transform="matrix(0.0227 0 0 0.0162 -0.5823 2.3866)">
<circle style="stroke: none; stroke-width: 0; stroke-dasharray: none; stroke-linecap: butt; stroke-dashoffset: 0; stroke-linejoin: miter; stroke-miterlimit: 4; fill: rgb(36,24,99); fill-rule: nonzero; opacity: 1;"
        cx="0" cy="0" r="75"/>
</g>
    <g transform="matrix(0.0227 0 0 0.0162 0.7519 3.5238)">
<circle style="stroke: none; stroke-width: 0; stroke-dasharray: none; stroke-linecap: butt; stroke-dashoffset: 0; stroke-linejoin: miter; stroke-miterlimit: 4; fill: rgb(36,24,99); fill-rule: nonzero; opacity: 1;"
        cx="0" cy="0" r="75"/>
</g>
    <g transform="matrix(0.0227 0 0 0.0162 1.5697 2.2022)">
<circle style="stroke: none; stroke-width: 0; stroke-dasharray: none; stroke-linecap: butt; stroke-dashoffset: 0; stroke-linejoin: miter; stroke-miterlimit: 4; fill: rgb(36,24,99); fill-rule: nonzero; opacity: 1;"
        cx="0" cy="0" r="75"/>
</g>
    <g transform="matrix(0.0227 0 0 0.0162 1.6128 0.7576)">
<circle style="stroke: none; stroke-width: 0; stroke-dasharray: none; stroke-linecap: butt; stroke-dashoffset: 0; stroke-linejoin: miter; stroke-miterlimit: 4; fill: rgb(36,24,99); fill-rule: nonzero; opacity: 1;"
        cx="0" cy="0" r="75"/>
</g>
    <g transform="matrix(0.0189 0.0135 -0.0149 0.0106 -1.8134 -4.4546)">
<ellipse
        style="stroke: none; stroke-width: 1; stroke-dasharray: none; stroke-linecap: butt; stroke-dashoffset: 0; stroke-linejoin: miter; stroke-miterlimit: 4; fill: rgb(55,169,68); fill-rule: nonzero; opacity: 1;"
        cx="0" cy="0" rx="100" ry="60"/>
</g>
    <g transform="matrix(-0.0287 0.0205 -0.0149 -0.0106 2.497 -5.2996)">
<ellipse
        style="stroke: none; stroke-width: 1; stroke-dasharray: none; stroke-linecap: butt; stroke-dashoffset: 0; stroke-linejoin: miter; stroke-miterlimit: 4; fill: rgb(55,169,68); fill-rule: nonzero; opacity: 1;"
        cx="0" cy="0" rx="100" ry="60"/>
</g>
</g>
</g>
    <g transform="matrix(0.1001 0 0 0.1053 8.2499 8.3161)">
<path style="stroke: rgb(47,158,68); stroke-width: 12; stroke-dasharray: none; stroke-linecap: round; stroke-dashoffset: 0; stroke-linejoin: round; stroke-miterlimit: 4; fill: none; fill-rule: nonzero; opacity: 1;"
      transform=" translate(-64, -61)" d="M 18 70 C 26 78 34 86 44 96 C 60 76 80 54 110 26" stroke-linecap="round"/>
</g>
</svg>