<?xml version="1.0" encoding="UTF-8" standalone="no" ?>
<!DOCTYPE svg PUBLIC "-//W3C//DTD SVG 1.1//EN" "http://www.w3.org/Graphics/SVG/1.1/DTD/svg11.dtd">
<svg xmlns="http://www.w3.org/2000/svg" xmlns:xlink="http://www.w3.org/1999/xlink" version="1.1" width="450"
     height="320" viewBox="0 0 450 320" xml:space="preserve">
<g transform="matrix(1 0 0 1 224.9284 159.586)">
<g style="">
		<g transform="matrix(0.5532 0 0 0.3321 -101.3159 126.2691)">
<circle style="stroke: rgb(229,224,224); stroke-width: 1; stroke-dasharray: none; stroke-linecap: butt; stroke-dashoffset: 0; stroke-linejoin: miter; stroke-miterlimit: 4; fill: rgb(0,0,0); fill-rule: nonzero; opacity: 1;"
        vector-effect="non-scaling-stroke" cx="0" cy="0" r="75"/>
</g>
    <g transform="matrix(0.4126 0 0 0.2477 -95.7392 140.5059)">
<circle style="stroke: rgb(229,224,224); stroke-width: 1; stroke-dasharray: none; stroke-linecap: butt; stroke-dashoffset: 0; stroke-linejoin: miter; stroke-miterlimit: 4; fill: rgb(0,0,0); fill-rule: nonzero; opacity: 1;"
        vector-effect="non-scaling-stroke" cx="0" cy="0" r="75"/>
</g>
    <g transform="matrix(0.1236 0 0 0.1225 -104.6332 126.1127)">
<circle style="stroke: rgb(229,224,224); stroke-width: 1; stroke-dasharray: none; stroke-linecap: butt; stroke-dashoffset: 0; stroke-linejoin: miter; stroke-miterlimit: 4; fill: rgb(255,255,255); fill-rule: nonzero; opacity: 1;"
        vector-effect="non-scaling-stroke" cx="0" cy="0" r="75"/>
</g>
    <g transform="matrix(0.1236 0 0 0.1225 -84.0687 125.557)">
<circle style="stroke: rgb(229,224,224); stroke-width: 1; stroke-dasharray: none; stroke-linecap: butt; stroke-dashoffset: 0; stroke-linejoin: miter; stroke-miterlimit: 4; fill: rgb(255,255,255); fill-rule: nonzero; opacity: 1;"
        vector-effect="non-scaling-stroke" cx="0" cy="0" r="75"/>
</g>
    <g transform="matrix(0.0904 0.0904 -0.0904 0.0904 -104.6007 126.4503)">
<polygon
        style="stroke: none; stroke-width: 1; stroke-dasharray: none; stroke-linecap: butt; stroke-dashoffset: 0; stroke-linejoin: miter; stroke-miterlimit: 4; fill: rgb(154,14,21); fill-rule: nonzero; opacity: 1;"
        points="-75,-25 -25,-25 -25,-75 25,-75 25,-25 75,-25 75,25 25,25 25,75 -25,75 -25,25 -75,25 "/>
</g>
    <g transform="matrix(0.0904 0.0904 -0.0904 0.0904 -83.9544 126.784)">
<polygon
        style="stroke: none; stroke-width: 1; stroke-dasharray: none; stroke-linecap: butt; stroke-dashoffset: 0; stroke-linejoin: miter; stroke-miterlimit: 4; fill: rgb(154,14,21); fill-rule: nonzero; opacity: 1;"
        points="-75,-25 -25,-25 -25,-75 25,-75 25,-25 75,-25 75,25 25,25 25,75 -25,75 -25,25 -75,25 "/>
</g>
    <g transform="matrix(0.1732 0.1 -0.1 0.1732 -93.6441 146.0665)">
<line style="stroke: rgb(173,0,0); stroke-width: 3; stroke-dasharray: none; stroke-linecap: butt; stroke-dashoffset: 0; stroke-linejoin: miter; stroke-miterlimit: 4; fill: rgb(196,3,3); fill-rule: nonzero; opacity: 1;"
      vector-effect="non-scaling-stroke" x1="-75" y1="0" x2="75" y2="0"/>
</g>
    <g transform="matrix(-0.1732 0.1 -0.1 -0.1732 -93.6372 145.8923)">
<line style="stroke: rgb(173,0,0); stroke-width: 3; stroke-dasharray: none; stroke-linecap: butt; stroke-dashoffset: 0; stroke-linejoin: miter; stroke-miterlimit: 4; fill: rgb(196,3,3); fill-rule: nonzero; opacity: 1;"
      vector-effect="non-scaling-stroke" x1="-75" y1="0" x2="75" y2="0"/>
</g>
    <g transform="matrix(0.1362 0.0785 0.0785 -0.1362 -144.2372 119.2712)">
<line style="stroke: rgb(0,0,0); stroke-width: 3; stroke-dasharray: none; stroke-linecap: butt; stroke-dashoffset: 0; stroke-linejoin: miter; stroke-miterlimit: 4; fill: rgb(0,0,0); fill-rule: nonzero; opacity: 1;"
      vector-effect="non-scaling-stroke" x1="-75" y1="0" x2="75" y2="0"/>
</g>
    <g transform="matrix(0.0784 -0.0699 -0.0001 -0.0001 -160.0371 117.9116)">
<line style="stroke: rgb(0,0,0); stroke-width: 3; stroke-dasharray: none; stroke-linecap: butt; stroke-dashoffset: 0; stroke-linejoin: miter; stroke-miterlimit: 4; fill: rgb(0,0,0); fill-rule: nonzero; opacity: 1;"
      vector-effect="non-scaling-stroke" x1="-75" y1="0" x2="75" y2="0"/>
</g>
    <g transform="matrix(0.1362 0.0785 0.0785 -0.1362 -142.3333 128.7907)">
<line style="stroke: rgb(0,0,0); stroke-width: 3; stroke-dasharray: none; stroke-linecap: butt; stroke-dashoffset: 0; stroke-linejoin: miter; stroke-miterlimit: 4; fill: rgb(0,0,0); fill-rule: nonzero; opacity: 1;"
      vector-effect="non-scaling-stroke" x1="-75" y1="0" x2="75" y2="0"/>
</g>
    <g transform="matrix(0.0784 -0.0699 -0.0001 -0.0001 -158.1332 127.4311)">
<line style="stroke: rgb(0,0,0); stroke-width: 3; stroke-dasharray: none; stroke-linecap: butt; stroke-dashoffset: 0; stroke-linejoin: miter; stroke-miterlimit: 4; fill: rgb(0,0,0); fill-rule: nonzero; opacity: 1;"
      vector-effect="non-scaling-stroke" x1="-75" y1="0" x2="75" y2="0"/>
</g>
    <g transform="matrix(0.1362 0.0785 0.0785 -0.1362 -139.3415 106.7598)">
<line style="stroke: rgb(0,0,0); stroke-width: 3; stroke-dasharray: none; stroke-linecap: butt; stroke-dashoffset: 0; stroke-linejoin: miter; stroke-miterlimit: 4; fill: rgb(0,0,0); fill-rule: nonzero; opacity: 1;"
      vector-effect="non-scaling-stroke" x1="-75" y1="0" x2="75" y2="0"/>
</g>
    <g transform="matrix(0.0784 -0.0699 -0.0001 -0.0001 -155.1413 105.4003)">
<line style="stroke: rgb(0,0,0); stroke-width: 3; stroke-dasharray: none; stroke-linecap: butt; stroke-dashoffset: 0; stroke-linejoin: miter; stroke-miterlimit: 4; fill: rgb(0,0,0); fill-rule: nonzero; opacity: 1;"
      vector-effect="non-scaling-stroke" x1="-75" y1="0" x2="75" y2="0"/>
</g>
    <g transform="matrix(-0.1362 0.0785 0.0785 0.1362 -60.5123 106.4591)">
<line style="stroke: rgb(0,0,0); stroke-width: 3; stroke-dasharray: none; stroke-linecap: butt; stroke-dashoffset: 0; stroke-linejoin: miter; stroke-miterlimit: 4; fill: rgb(0,0,0); fill-rule: nonzero; opacity: 1;"
      vector-effect="non-scaling-stroke" x1="-75" y1="0" x2="75" y2="0"/>
</g>
    <g transform="matrix(0.0781 0.0703 0.0001 -0.0001 -45.3983 105.5206)">
<line style="stroke: rgb(0,0,0); stroke-width: 3; stroke-dasharray: none; stroke-linecap: butt; stroke-dashoffset: 0; stroke-linejoin: miter; stroke-miterlimit: 4; fill: rgb(0,0,0); fill-rule: nonzero; opacity: 1;"
      vector-effect="non-scaling-stroke" x1="-75" y1="0" x2="75" y2="0"/>
</g>
    <g transform="matrix(-0.1362 0.0785 0.0785 0.1362 -59.1524 114.3466)">
<line style="stroke: rgb(0,0,0); stroke-width: 3; stroke-dasharray: none; stroke-linecap: butt; stroke-dashoffset: 0; stroke-linejoin: miter; stroke-miterlimit: 4; fill: rgb(0,0,0); fill-rule: nonzero; opacity: 1;"
      vector-effect="non-scaling-stroke" x1="-75" y1="0" x2="75" y2="0"/>
</g>
    <g transform="matrix(0.0781 0.0703 0.0001 -0.0001 -44.0384 113.4081)">
<line style="stroke: rgb(0,0,0); stroke-width: 3; stroke-dasharray: none; stroke-linecap: butt; stroke-dashoffset: 0; stroke-linejoin: miter; stroke-miterlimit: 4; fill: rgb(0,0,0); fill-rule: nonzero; opacity: 1;"
      vector-effect="non-scaling-stroke" x1="-75" y1="0" x2="75" y2="0"/>
</g>
    <g transform="matrix(-0.1362 0.0785 0.0785 0.1362 -56.1606 123.8662)">
<line style="stroke: rgb(0,0,0); stroke-width: 3; stroke-dasharray: none; stroke-linecap: butt; stroke-dashoffset: 0; stroke-linejoin: miter; stroke-miterlimit: 4; fill: rgb(0,0,0); fill-rule: nonzero; opacity: 1;"
      vector-effect="non-scaling-stroke" x1="-75" y1="0" x2="75" y2="0"/>
</g>
    <g transform="matrix(0.0781 0.0703 0.0001 -0.0001 -41.0465 122.9277)">
<line style="stroke: rgb(0,0,0); stroke-width: 3; stroke-dasharray: none; stroke-linecap: butt; stroke-dashoffset: 0; stroke-linejoin: miter; stroke-miterlimit: 4; fill: rgb(0,0,0); fill-rule: nonzero; opacity: 1;"
      vector-effect="non-scaling-stroke" x1="-75" y1="0" x2="75" y2="0"/>
</g>
    <g transform="matrix(0.2936 0 0 0.2936 -169.9757 -57.6767)">
<circle style="stroke: none; stroke-width: 0; stroke-dasharray: none; stroke-linecap: butt; stroke-dashoffset: 0; stroke-linejoin: miter; stroke-miterlimit: 4; fill: rgb(21,24,96); fill-rule: nonzero; opacity: 1;"
        vector-effect="non-scaling-stroke" cx="0" cy="0" r="75"/>
</g>
    <g transform="matrix(0.2936 0 0 0.2936 -136.7668 -64.9021)">
<circle style="stroke: none; stroke-width: 0; stroke-dasharray: none; stroke-linecap: butt; stroke-dashoffset: 0; stroke-linejoin: miter; stroke-miterlimit: 4; fill: rgb(21,24,96); fill-rule: nonzero; opacity: 1;"
        vector-effect="non-scaling-stroke" cx="0" cy="0" r="75"/>
</g>
    <g transform="matrix(0.2936 0 0 0.2936 -102.8632 -58.9273)">
<circle style="stroke: none; stroke-width: 0; stroke-dasharray: none; stroke-linecap: butt; stroke-dashoffset: 0; stroke-linejoin: miter; stroke-miterlimit: 4; fill: rgb(21,24,96); fill-rule: nonzero; opacity: 1;"
        vector-effect="non-scaling-stroke" cx="0" cy="0" r="75"/>
</g>
    <g transform="matrix(0.2936 0 0 0.2936 -196.7928 -32.8049)">
<circle style="stroke: none; stroke-width: 0; stroke-dasharray: none; stroke-linecap: butt; stroke-dashoffset: 0; stroke-linejoin: miter; stroke-miterlimit: 4; fill: rgb(21,24,96); fill-rule: nonzero; opacity: 1;"
        vector-effect="non-scaling-stroke" cx="0" cy="0" r="75"/>
</g>
    <g transform="matrix(0.2936 0 0 0.2936 -202.9066 -1.1244)">
<circle style="stroke: none; stroke-width: 0; stroke-dasharray: none; stroke-linecap: butt; stroke-dashoffset: 0; stroke-linejoin: miter; stroke-miterlimit: 4; fill: rgb(21,24,96); fill-rule: nonzero; opacity: 1;"
        vector-effect="non-scaling-stroke" cx="0" cy="0" r="75"/>
</g>
    <g transform="matrix(0.2936 0 0 0.2936 -195.6813 35.0024)">
<circle style="stroke: none; stroke-width: 0; stroke-dasharray: none; stroke-linecap: butt; stroke-dashoffset: 0; stroke-linejoin: miter; stroke-miterlimit: 4; fill: rgb(21,24,96); fill-rule: nonzero; opacity: 1;"
        vector-effect="non-scaling-stroke" cx="0" cy="0" r="75"/>
</g>
    <g transform="matrix(0.2936 0 0 0.2936 -180.6748 70.0176)">
<circle style="stroke: none; stroke-width: 0; stroke-dasharray: none; stroke-linecap: butt; stroke-dashoffset: 0; stroke-linejoin: miter; stroke-miterlimit: 4; fill: rgb(21,24,96); fill-rule: nonzero; opacity: 1;"
        vector-effect="non-scaling-stroke" cx="0" cy="0" r="75"/>
</g>
    <g transform="matrix(0.2936 0 0 0.2936 -155.6639 97.2516)">
<circle style="stroke: none; stroke-width: 0; stroke-dasharray: none; stroke-linecap: butt; stroke-dashoffset: 0; stroke-linejoin: miter; stroke-miterlimit: 4; fill: rgb(21,24,96); fill-rule: nonzero; opacity: 1;"
        vector-effect="non-scaling-stroke" cx="0" cy="0" r="75"/>
</g>
    <g transform="matrix(0.2936 0 0 0.2936 -122.8719 107.8117)">
<circle style="stroke: none; stroke-width: 0; stroke-dasharray: none; stroke-linecap: butt; stroke-dashoffset: 0; stroke-linejoin: miter; stroke-miterlimit: 4; fill: rgb(21,24,96); fill-rule: nonzero; opacity: 1;"
        vector-effect="non-scaling-stroke" cx="0" cy="0" r="75"/>
</g>
    <g transform="matrix(0.2936 0 0 0.2936 -95.6379 91.6936)">
<circle style="stroke: none; stroke-width: 0; stroke-dasharray: none; stroke-linecap: butt; stroke-dashoffset: 0; stroke-linejoin: miter; stroke-miterlimit: 4; fill: rgb(21,24,96); fill-rule: nonzero; opacity: 1;"
        vector-effect="non-scaling-stroke" cx="0" cy="0" r="75"/>
</g>
    <g transform="matrix(0.2936 0 0 0.2936 -72.8501 -37.8071)">
<circle style="stroke: none; stroke-width: 0; stroke-dasharray: none; stroke-linecap: butt; stroke-dashoffset: 0; stroke-linejoin: miter; stroke-miterlimit: 4; fill: rgb(21,24,96); fill-rule: nonzero; opacity: 1;"
        vector-effect="non-scaling-stroke" cx="0" cy="0" r="75"/>
</g>
    <g transform="matrix(0.2936 0 0 0.2936 -62.29 -2.7919)">
<circle style="stroke: none; stroke-width: 0; stroke-dasharray: none; stroke-linecap: butt; stroke-dashoffset: 0; stroke-linejoin: miter; stroke-miterlimit: 4; fill: rgb(21,24,96); fill-rule: nonzero; opacity: 1;"
        vector-effect="non-scaling-stroke" cx="0" cy="0" r="75"/>
</g>
    <g transform="matrix(0.2936 0 0 0.2936 -66.1806 33.3349)">
<circle style="stroke: none; stroke-width: 0; stroke-dasharray: none; stroke-linecap: butt; stroke-dashoffset: 0; stroke-linejoin: miter; stroke-miterlimit: 4; fill: rgb(21,24,96); fill-rule: nonzero; opacity: 1;"
        vector-effect="non-scaling-stroke" cx="0" cy="0" r="75"/>
</g>
    <g transform="matrix(0.2936 0 0 0.2936 -75.6291 63.9037)">
<circle style="stroke: none; stroke-width: 0; stroke-dasharray: none; stroke-linecap: butt; stroke-dashoffset: 0; stroke-linejoin: miter; stroke-miterlimit: 4; fill: rgb(21,24,96); fill-rule: nonzero; opacity: 1;"
        vector-effect="non-scaling-stroke" cx="0" cy="0" r="75"/>
</g>
    <g transform="matrix(0.2936 0 0 0.2936 -152.885 -32.2492)">
<circle style="stroke: none; stroke-width: 0; stroke-dasharray: none; stroke-linecap: butt; stroke-dashoffset: 0; stroke-linejoin: miter; stroke-miterlimit: 4; fill: rgb(34,21,96); fill-rule: nonzero; opacity: 1;"
        vector-effect="non-scaling-stroke" cx="0" cy="0" r="75"/>
</g>
    <g transform="matrix(0.2936 0 0 0.2936 -120.093 -33.9166)">
<circle style="stroke: none; stroke-width: 0; stroke-dasharray: none; stroke-linecap: butt; stroke-dashoffset: 0; stroke-linejoin: miter; stroke-miterlimit: 4; fill: rgb(34,21,96); fill-rule: nonzero; opacity: 1;"
        vector-effect="non-scaling-stroke" cx="0" cy="0" r="75"/>
</g>
    <g transform="matrix(0.2936 0 0 0.2936 -93.9705 -21.1332)">
<circle style="stroke: none; stroke-width: 0; stroke-dasharray: none; stroke-linecap: butt; stroke-dashoffset: 0; stroke-linejoin: miter; stroke-miterlimit: 4; fill: rgb(34,21,96); fill-rule: nonzero; opacity: 1;"
        vector-effect="non-scaling-stroke" cx="0" cy="0" r="75"/>
</g>
    <g transform="matrix(0.2936 0 0 0.2936 -176.7842 -21.689)">
<circle style="stroke: none; stroke-width: 0; stroke-dasharray: none; stroke-linecap: butt; stroke-dashoffset: 0; stroke-linejoin: miter; stroke-miterlimit: 4; fill: rgb(34,21,96); fill-rule: nonzero; opacity: 1;"
        vector-effect="non-scaling-stroke" cx="0" cy="0" r="75"/>
</g>
    <g transform="matrix(0.2936 0 0 0.2936 -170.6705 14.4378)">
<circle style="stroke: none; stroke-width: 0; stroke-dasharray: none; stroke-linecap: butt; stroke-dashoffset: 0; stroke-linejoin: miter; stroke-miterlimit: 4; fill: rgb(34,21,96); fill-rule: nonzero; opacity: 1;"
        vector-effect="non-scaling-stroke" cx="0" cy="0" r="75"/>
</g>
    <g transform="matrix(0.2936 0 0 0.2936 -160.1104 48.3414)">
<circle style="stroke: none; stroke-width: 0; stroke-dasharray: none; stroke-linecap: butt; stroke-dashoffset: 0; stroke-linejoin: miter; stroke-miterlimit: 4; fill: rgb(34,21,96); fill-rule: nonzero; opacity: 1;"
        vector-effect="non-scaling-stroke" cx="0" cy="0" r="75"/>
</g>
    <g transform="matrix(0.2936 0 0 0.2936 -145.1039 72.2407)">
<circle style="stroke: none; stroke-width: 0; stroke-dasharray: none; stroke-linecap: butt; stroke-dashoffset: 0; stroke-linejoin: miter; stroke-miterlimit: 4; fill: rgb(34,21,96); fill-rule: nonzero; opacity: 1;"
        vector-effect="non-scaling-stroke" cx="0" cy="0" r="75"/>
</g>
    <g transform="matrix(0.2936 0 0 0.2936 -112.3118 75.0197)">
<circle style="stroke: none; stroke-width: 0; stroke-dasharray: none; stroke-linecap: butt; stroke-dashoffset: 0; stroke-linejoin: miter; stroke-miterlimit: 4; fill: rgb(34,21,96); fill-rule: nonzero; opacity: 1;"
        vector-effect="non-scaling-stroke" cx="0" cy="0" r="75"/>
</g>
    <g transform="matrix(0.2936 0 0 0.2936 -92.859 42.2277)">
<circle style="stroke: none; stroke-width: 0; stroke-dasharray: none; stroke-linecap: butt; stroke-dashoffset: 0; stroke-linejoin: miter; stroke-miterlimit: 4; fill: rgb(34,21,96); fill-rule: nonzero; opacity: 1;"
        vector-effect="non-scaling-stroke" cx="0" cy="0" r="75"/>
</g>
    <g transform="matrix(0.2936 0 0 0.2936 -84.5219 4.9892)">
<circle style="stroke: none; stroke-width: 0; stroke-dasharray: none; stroke-linecap: butt; stroke-dashoffset: 0; stroke-linejoin: miter; stroke-miterlimit: 4; fill: rgb(34,21,96); fill-rule: nonzero; opacity: 1;"
        vector-effect="non-scaling-stroke" cx="0" cy="0" r="75"/>
</g>
    <g transform="matrix(0.2936 0 0 0.2936 -141.769 -1.1246)">
<circle style="stroke: none; stroke-width: 0; stroke-dasharray: none; stroke-linecap: butt; stroke-dashoffset: 0; stroke-linejoin: miter; stroke-miterlimit: 4; fill: rgb(36,24,99); fill-rule: nonzero; opacity: 1;"
        vector-effect="non-scaling-stroke" cx="0" cy="0" r="75"/>
</g>
    <g transform="matrix(0.2936 0 0 0.2936 -140.1016 28.3327)">
<circle style="stroke: none; stroke-width: 0; stroke-dasharray: none; stroke-linecap: butt; stroke-dashoffset: 0; stroke-linejoin: miter; stroke-miterlimit: 4; fill: rgb(36,24,99); fill-rule: nonzero; opacity: 1;"
        vector-effect="non-scaling-stroke" cx="0" cy="0" r="75"/>
</g>
    <g transform="matrix(0.2936 0 0 0.2936 -122.8719 48.8972)">
<circle style="stroke: none; stroke-width: 0; stroke-dasharray: none; stroke-linecap: butt; stroke-dashoffset: 0; stroke-linejoin: miter; stroke-miterlimit: 4; fill: rgb(36,24,99); fill-rule: nonzero; opacity: 1;"
        vector-effect="non-scaling-stroke" cx="0" cy="0" r="75"/>
</g>
    <g transform="matrix(0.2936 0 0 0.2936 -112.3118 24.998)">
<circle style="stroke: none; stroke-width: 0; stroke-dasharray: none; stroke-linecap: butt; stroke-dashoffset: 0; stroke-linejoin: miter; stroke-miterlimit: 4; fill: rgb(36,24,99); fill-rule: nonzero; opacity: 1;"
        vector-effect="non-scaling-stroke" cx="0" cy="0" r="75"/>
</g>
    <g transform="matrix(0.2936 0 0 0.2936 -111.756 -1.1246)">
<circle style="stroke: none; stroke-width: 0; stroke-dasharray: none; stroke-linecap: butt; stroke-dashoffset: 0; stroke-linejoin: miter; stroke-miterlimit: 4; fill: rgb(36,24,99); fill-rule: nonzero; opacity: 1;"
        vector-effect="non-scaling-stroke" cx="0" cy="0" r="75"/>
</g>
    <g transform="matrix(0.2436 0.2436 -0.1921 0.1921 -156.0565 -95.4867)">
<ellipse
        style="stroke: none; stroke-width: 1; stroke-dasharray: none; stroke-linecap: butt; stroke-dashoffset: 0; stroke-linejoin: miter; stroke-miterlimit: 4; fill: rgb(55,169,68); fill-rule: nonzero; opacity: 1;"
        cx="0" cy="0" rx="100" ry="60"/>
</g>
    <g transform="matrix(-0.371 0.371 -0.1921 -0.1921 -100.375 -110.6714)">
<ellipse
        style="stroke: none; stroke-width: 1; stroke-dasharray: none; stroke-linecap: butt; stroke-dashoffset: 0; stroke-linejoin: miter; stroke-miterlimit: 4; fill: rgb(55,169,68); fill-rule: nonzero; opacity: 1;"
        cx="0" cy="0" rx="100" ry="60"/>
</g>
    <g transform="matrix(0.2234 0.2234 0.2234 -0.2234 -151.0888 -93.7803)">
<line style="stroke: rgb(164,244,170); stroke-width: 3; stroke-dasharray: none; stroke-linecap: butt; stroke-dashoffset: 0; stroke-linejoin: miter; stroke-miterlimit: 4; fill: rgb(0,0,0); fill-rule: nonzero; opacity: 1;"
      vector-effect="non-scaling-stroke" x1="-75" y1="0" x2="75" y2="0"/>
</g>
    <g transform="matrix(-0.3858 0.3858 0.3858 0.3858 -106.0272 -106.2728)">
<line style="stroke: rgb(164,244,170); stroke-width: 3; stroke-dasharray: none; stroke-linecap: butt; stroke-dashoffset: 0; stroke-linejoin: miter; stroke-miterlimit: 4; fill: rgb(0,0,0); fill-rule: nonzero; opacity: 1;"
      vector-effect="non-scaling-stroke" x1="-75" y1="0" x2="75" y2="0"/>
</g>
    <g transform="matrix(0.9117 0 0 0.9117 -125.6399 18.4849)">
<path style="stroke: rgb(47,158,68); stroke-width: 12; stroke-dasharray: none; stroke-linecap: round; stroke-dashoffset: 0; stroke-linejoin: round; stroke-miterlimit: 4; fill: none; fill-rule: nonzero; opacity: 1;"
      transform=" translate(-64, -61)" d="M 18 70 C 26 78 34 86 44 96 C 60 76 80 54 110 26" stroke-linecap="round"/>
</g>
    <g transform="matrix(1.5212 0 0 1.5212 56.7779 -37.4448)" style="">
		<text xml:space="preserve" font-family="sans-serif" font-size="48" font-style="normal" font-weight="bold"
              style="stroke: none; stroke-width: 1; stroke-dasharray: none; stroke-linecap: butt; stroke-dashoffset: 0; stroke-linejoin: miter; stroke-miterlimit: 4; fill: rgb(37,12,75); fill-rule: nonzero; opacity: 1; white-space: pre;"><tspan x="-62.707" y="15.0787" >Berry</tspan></text>
</g>
    <g transform="matrix(1.5212 0 0 1.5212 118.6868 34.1685)" style="">
		<text xml:space="preserve" font-family="sans-serif" font-size="48" font-style="normal" font-weight="bold"
              style="stroke: none; stroke-width: 1; stroke-dasharray: none; stroke-linecap: butt; stroke-dashoffset: 0; stroke-linejoin: miter; stroke-miterlimit: 4; fill: rgb(26,127,51); fill-rule: nonzero; opacity: 1; white-space: pre;"><tspan x="-69.3398" y="15.0787" >Crush</tspan></text>
</g>
</g>
</g>
</svg>