<?xml version="1.0" encoding="UTF-8" standalone="no" ?>
<!DOCTYPE svg PUBLIC "-//W3C//DTD SVG 1.1//EN" "http://www.w3.org/Graphics/SVG/1.1/DTD/svg11.dtd">
<svg xmlns="http://www.w3.org/2000/svg" version="1.1" width="200" height="120" viewBox="170 445 200 120" xml:space="preserve">
  <!-- Bug component extracted from berrycrush.svg -->
  <g transform="matrix(1 0 0 1 272.0229 504.9575)">
    <g style="">
      <!-- Body (2 ellipses) -->
      <g transform="matrix(0.8654 0 0 0.5196 -1.1924 -4.7429)">
        <circle style="stroke: rgb(229,224,224); stroke-width: 1; stroke-dasharray: none; stroke-linecap: butt; stroke-dashoffset: 0; stroke-linejoin: miter; stroke-miterlimit: 4; fill: rgb(0,0,0); fill-rule: nonzero; opacity: 1;" vector-effect="non-scaling-stroke" cx="0" cy="0" r="75" />
      </g>
      <g transform="matrix(0.6455 0 0 0.3876 7.5325 17.5311)">
        <circle style="stroke: rgb(229,224,224); stroke-width: 1; stroke-dasharray: none; stroke-linecap: butt; stroke-dashoffset: 0; stroke-linejoin: miter; stroke-miterlimit: 4; fill: rgb(0,0,0); fill-rule: nonzero; opacity: 1;" vector-effect="non-scaling-stroke" cx="0" cy="0" r="75" />
      </g>
      <!-- Eyes (white circles) -->
      <g transform="matrix(0.1933 0 0 0.1917 -6.3825 -4.9875)">
        <circle style="stroke: rgb(229,224,224); stroke-width: 1; stroke-dasharray: none; stroke-linecap: butt; stroke-dashoffset: 0; stroke-linejoin: miter; stroke-miterlimit: 4; fill: rgb(255,255,255); fill-rule: nonzero; opacity: 1;" vector-effect="non-scaling-stroke" cx="0" cy="0" r="75" />
      </g>
      <g transform="matrix(0.1933 0 0 0.1917 25.7914 -5.8571)">
        <circle style="stroke: rgb(229,224,224); stroke-width: 1; stroke-dasharray: none; stroke-linecap: butt; stroke-dashoffset: 0; stroke-linejoin: miter; stroke-miterlimit: 4; fill: rgb(255,255,255); fill-rule: nonzero; opacity: 1;" vector-effect="non-scaling-stroke" cx="0" cy="0" r="75" />
      </g>
      <!-- Eye X marks (red) -->
      <g transform="matrix(0.1414 0.1414 -0.1414 0.1414 -6.3316 -4.4594)">
        <polygon style="stroke: none; stroke-width: 1; stroke-dasharray: none; stroke-linecap: butt; stroke-dashoffset: 0; stroke-linejoin: miter; stroke-miterlimit: 4; fill: rgb(154,14,21); fill-rule: nonzero; opacity: 1;" points="-75,-25 -25,-25 -25,-75 25,-75 25,-25 75,-25 75,25 25,25 25,75 -25,75 -25,25 -75,25" />
      </g>
      <g transform="matrix(0.1414 0.1414 -0.1414 0.1414 25.9702 -3.9373)">
        <polygon style="stroke: none; stroke-width: 1; stroke-dasharray: none; stroke-linecap: butt; stroke-dashoffset: 0; stroke-linejoin: miter; stroke-miterlimit: 4; fill: rgb(154,14,21); fill-rule: nonzero; opacity: 1;" points="-75,-25 -25,-25 -25,-75 25,-75 25,-25 75,-25 75,25 25,25 25,75 -25,75 -25,25 -75,25" />
      </g>
      <!-- Mouth -->
      <g transform="matrix(1 0 0 1 10.8157 26.0931)">
        <g style="">
          <g transform="matrix(0.271 0.1564 -0.1564 0.271 -0.0054 0.1377)">
            <line style="stroke: rgb(173,0,0); stroke-width: 3; stroke-dasharray: none; stroke-linecap: butt; stroke-dashoffset: 0; stroke-linejoin: miter; stroke-miterlimit: 4; fill: rgb(196,3,3); fill-rule: nonzero; opacity: 1;" vector-effect="non-scaling-stroke" x1="-75" y1="0" x2="75" y2="0" />
          </g>
          <g transform="matrix(-0.271 0.1564 -0.1564 -0.271 0.0054 -0.1348)">
            <line style="stroke: rgb(173,0,0); stroke-width: 3; stroke-dasharray: none; stroke-linecap: butt; stroke-dashoffset: 0; stroke-linejoin: miter; stroke-miterlimit: 4; fill: rgb(196,3,3); fill-rule: nonzero; opacity: 1;" vector-effect="non-scaling-stroke" x1="-75" y1="0" x2="75" y2="0" />
          </g>
        </g>
      </g>
      <!-- Left legs -->
      <g transform="matrix(1 0 0 1 -77.3204 -16.2494)">
        <g style="">
          <g transform="matrix(0.213 0.1229 0.1229 -0.213 8.976 0.558)">
            <line style="stroke: rgb(0,0,0); stroke-width: 3; stroke-dasharray: none; stroke-linecap: butt; stroke-dashoffset: 0; stroke-linejoin: miter; stroke-miterlimit: 4; fill: rgb(0,0,0); fill-rule: nonzero; opacity: 1;" vector-effect="non-scaling-stroke" x1="-75" y1="0" x2="75" y2="0" />
          </g>
          <g transform="matrix(0.1227 -0.1094 -0.0001 -0.0001 -15.7435 -1.5691)">
            <line style="stroke: rgb(0,0,0); stroke-width: 3; stroke-dasharray: none; stroke-linecap: butt; stroke-dashoffset: 0; stroke-linejoin: miter; stroke-miterlimit: 4; fill: rgb(0,0,0); fill-rule: nonzero; opacity: 1;" vector-effect="non-scaling-stroke" x1="-75" y1="0" x2="75" y2="0" />
          </g>
        </g>
      </g>
      <g transform="matrix(1 0 0 1 -74.3417 -1.3558)">
        <g style="">
          <g transform="matrix(0.213 0.1229 0.1229 -0.213 8.976 0.558)">
            <line style="stroke: rgb(0,0,0); stroke-width: 3; stroke-dasharray: none; stroke-linecap: butt; stroke-dashoffset: 0; stroke-linejoin: miter; stroke-miterlimit: 4; fill: rgb(0,0,0); fill-rule: nonzero; opacity: 1;" vector-effect="non-scaling-stroke" x1="-75" y1="0" x2="75" y2="0" />
          </g>
          <g transform="matrix(0.1227 -0.1094 -0.0001 -0.0001 -15.7435 -1.5691)">
            <line style="stroke: rgb(0,0,0); stroke-width: 3; stroke-dasharray: none; stroke-linecap: butt; stroke-dashoffset: 0; stroke-linejoin: miter; stroke-miterlimit: 4; fill: rgb(0,0,0); fill-rule: nonzero; opacity: 1;" vector-effect="non-scaling-stroke" x1="-75" y1="0" x2="75" y2="0" />
          </g>
        </g>
      </g>
      <g transform="matrix(1 0 0 1 -69.6608 -35.8239)">
        <g style="">
          <g transform="matrix(0.213 0.1229 0.1229 -0.213 8.976 0.558)">
            <line style="stroke: rgb(0,0,0); stroke-width: 3; stroke-dasharray: none; stroke-linecap: butt; stroke-dashoffset: 0; stroke-linejoin: miter; stroke-miterlimit: 4; fill: rgb(0,0,0); fill-rule: nonzero; opacity: 1;" vector-effect="non-scaling-stroke" x1="-75" y1="0" x2="75" y2="0" />
          </g>
          <g transform="matrix(0.1227 -0.1094 -0.0001 -0.0001 -15.7435 -1.5691)">
            <line style="stroke: rgb(0,0,0); stroke-width: 3; stroke-dasharray: none; stroke-linecap: butt; stroke-dashoffset: 0; stroke-linejoin: miter; stroke-miterlimit: 4; fill: rgb(0,0,0); fill-rule: nonzero; opacity: 1;" vector-effect="non-scaling-stroke" x1="-75" y1="0" x2="75" y2="0" />
          </g>
        </g>
      </g>
      <!-- Right legs -->
      <g transform="matrix(1 0 0 1 71.0651 -35.9852)">
        <g style="">
          <g transform="matrix(-0.213 0.1229 0.1229 0.213 -8.4189 0.2488)">
            <line style="stroke: rgb(0,0,0); stroke-width: 3; stroke-dasharray: none; stroke-linecap: butt; stroke-dashoffset: 0; stroke-linejoin: miter; stroke-miterlimit: 4; fill: rgb(0,0,0); fill-rule: nonzero; opacity: 1;" vector-effect="non-scaling-stroke" x1="-75" y1="0" x2="75" y2="0" />
          </g>
          <g transform="matrix(0.1222 0.11 0.0001 -0.0001 15.2276 -1.2196)">
            <line style="stroke: rgb(0,0,0); stroke-width: 3; stroke-dasharray: none; stroke-linecap: butt; stroke-dashoffset: 0; stroke-linejoin: miter; stroke-miterlimit: 4; fill: rgb(0,0,0); fill-rule: nonzero; opacity: 1;" vector-effect="non-scaling-stroke" x1="-75" y1="0" x2="75" y2="0" />
          </g>
        </g>
      </g>
      <g transform="matrix(1 0 0 1 73.1928 -23.6448)">
        <g style="">
          <g transform="matrix(-0.213 0.1229 0.1229 0.213 -8.4189 0.2488)">
            <line style="stroke: rgb(0,0,0); stroke-width: 3; stroke-dasharray: none; stroke-linecap: butt; stroke-dashoffset: 0; stroke-linejoin: miter; stroke-miterlimit: 4; fill: rgb(0,0,0); fill-rule: nonzero; opacity: 1;" vector-effect="non-scaling-stroke" x1="-75" y1="0" x2="75" y2="0" />
          </g>
          <g transform="matrix(0.1222 0.11 0.0001 -0.0001 15.2276 -1.2196)">
            <line style="stroke: rgb(0,0,0); stroke-width: 3; stroke-dasharray: none; stroke-linecap: butt; stroke-dashoffset: 0; stroke-linejoin: miter; stroke-miterlimit: 4; fill: rgb(0,0,0); fill-rule: nonzero; opacity: 1;" vector-effect="non-scaling-stroke" x1="-75" y1="0" x2="75" y2="0" />
          </g>
        </g>
      </g>
      <g transform="matrix(1 0 0 1 77.8737 -8.7511)">
        <g style="">
          <g transform="matrix(-0.213 0.1229 0.1229 0.213 -8.4189 0.2488)">
            <line style="stroke: rgb(0,0,0); stroke-width: 3; stroke-dasharray: none; stroke-linecap: butt; stroke-dashoffset: 0; stroke-linejoin: miter; stroke-miterlimit: 4; fill: rgb(0,0,0); fill-rule: nonzero; opacity: 1;" vector-effect="non-scaling-stroke" x1="-75" y1="0" x2="75" y2="0" />
          </g>
          <g transform="matrix(0.1222 0.11 0.0001 -0.0001 15.2276 -1.2196)">
            <line style="stroke: rgb(0,0,0); stroke-width: 3; stroke-dasharray: none; stroke-linecap: butt; stroke-dashoffset: 0; stroke-linejoin: miter; stroke-miterlimit: 4; fill: rgb(0,0,0); fill-rule: nonzero; opacity: 1;" vector-effect="non-scaling-stroke" x1="-75" y1="0" x2="75" y2="0" />
          </g>
        </g>
      </g>
    </g>
  </g>
</svg>
